<svg xmlns="http://www.w3.org/2000/svg" xmlns:xlink="http://www.w3.org/1999/xlink" width="836" zoomAndPan="magnify" viewBox="0 0 627 352.49999" height="470" preserveAspectRatio="xMidYMid meet" version="1.0"><defs><g/></defs><g fill="#222121" fill-opacity="1"><g transform="translate(167.264066, 190.230156)"><g><path d="M 21 -16.890625 L 21 -27.078125 L 26.34375 -27.078125 L 26.34375 0 L 21 0 L 21 -12.34375 L 8.875 -12.34375 L 8.875 0 L 3.515625 0 L 3.515625 -27.078125 L 8.875 -27.078125 L 8.875 -16.890625 Z M 21 -16.890625 "/></g></g></g><g fill="#222121" fill-opacity="1"><g transform="translate(197.144238, 190.230156)"><g><path d="M 7.96875 0.390625 C 6.65625 0.390625 5.515625 0.148438 4.546875 -0.328125 C 3.585938 -0.816406 2.847656 -1.523438 2.328125 -2.453125 C 1.816406 -3.390625 1.5625 -4.507812 1.5625 -5.8125 C 1.5625 -7.019531 1.816406 -8.035156 2.328125 -8.859375 C 2.847656 -9.679688 3.648438 -10.351562 4.734375 -10.875 C 5.828125 -11.40625 7.25 -11.8125 9 -12.09375 C 10.226562 -12.289062 11.160156 -12.503906 11.796875 -12.734375 C 12.429688 -12.972656 12.859375 -13.238281 13.078125 -13.53125 C 13.296875 -13.832031 13.40625 -14.210938 13.40625 -14.671875 C 13.40625 -15.328125 13.175781 -15.828125 12.71875 -16.171875 C 12.269531 -16.515625 11.515625 -16.6875 10.453125 -16.6875 C 9.316406 -16.6875 8.234375 -16.429688 7.203125 -15.921875 C 6.179688 -15.421875 5.289062 -14.757812 4.53125 -13.9375 L 4.171875 -13.9375 L 2.015625 -17.171875 C 3.054688 -18.316406 4.320312 -19.210938 5.8125 -19.859375 C 7.3125 -20.503906 8.941406 -20.828125 10.703125 -20.828125 C 13.410156 -20.828125 15.367188 -20.25 16.578125 -19.09375 C 17.785156 -17.945312 18.390625 -16.316406 18.390625 -14.203125 L 18.390625 -5.328125 C 18.390625 -4.421875 18.789062 -3.96875 19.59375 -3.96875 C 19.90625 -3.96875 20.207031 -4.019531 20.5 -4.125 L 20.765625 -4.0625 L 21.140625 -0.484375 C 20.847656 -0.296875 20.445312 -0.144531 19.9375 -0.03125 C 19.4375 0.0820312 18.882812 0.140625 18.28125 0.140625 C 17.0625 0.140625 16.109375 -0.09375 15.421875 -0.5625 C 14.734375 -1.03125 14.242188 -1.765625 13.953125 -2.765625 L 13.5625 -2.796875 C 12.5625 -0.671875 10.695312 0.390625 7.96875 0.390625 Z M 9.59375 -3.453125 C 10.78125 -3.453125 11.726562 -3.847656 12.4375 -4.640625 C 13.144531 -5.429688 13.5 -6.539062 13.5 -7.96875 L 13.5 -10.046875 L 13.15625 -10.109375 C 12.84375 -9.867188 12.4375 -9.664062 11.9375 -9.5 C 11.4375 -9.332031 10.71875 -9.164062 9.78125 -9 C 8.664062 -8.8125 7.863281 -8.492188 7.375 -8.046875 C 6.894531 -7.597656 6.65625 -6.957031 6.65625 -6.125 C 6.65625 -5.25 6.910156 -4.582031 7.421875 -4.125 C 7.941406 -3.675781 8.664062 -3.453125 9.59375 -3.453125 Z M 9.59375 -3.453125 "/></g></g></g><g fill="#222121" fill-opacity="1"><g transform="translate(218.688343, 190.230156)"><g><path d="M 2.953125 0 L 2.953125 -20.4375 L 7.921875 -20.4375 L 7.921875 -17.390625 L 8.3125 -17.3125 C 8.8125 -18.457031 9.460938 -19.296875 10.265625 -19.828125 C 11.066406 -20.359375 12.039062 -20.625 13.1875 -20.625 C 14.351562 -20.625 15.238281 -20.425781 15.84375 -20.03125 L 14.96875 -15.59375 L 14.578125 -15.515625 C 14.242188 -15.660156 13.921875 -15.757812 13.609375 -15.8125 C 13.304688 -15.875 12.929688 -15.90625 12.484375 -15.90625 C 11.054688 -15.90625 9.960938 -15.398438 9.203125 -14.390625 C 8.453125 -13.390625 8.078125 -11.78125 8.078125 -9.5625 L 8.078125 0 Z M 2.953125 0 "/></g></g></g><g fill="#222121" fill-opacity="1"><g transform="translate(234.712118, 190.230156)"><g><path d="M 2.953125 0 L 2.953125 -20.4375 L 7.921875 -20.4375 L 7.921875 -17.390625 L 8.3125 -17.3125 C 8.8125 -18.457031 9.460938 -19.296875 10.265625 -19.828125 C 11.066406 -20.359375 12.039062 -20.625 13.1875 -20.625 C 14.351562 -20.625 15.238281 -20.425781 15.84375 -20.03125 L 14.96875 -15.59375 L 14.578125 -15.515625 C 14.242188 -15.660156 13.921875 -15.757812 13.609375 -15.8125 C 13.304688 -15.875 12.929688 -15.90625 12.484375 -15.90625 C 11.054688 -15.90625 9.960938 -15.398438 9.203125 -14.390625 C 8.453125 -13.390625 8.078125 -11.78125 8.078125 -9.5625 L 8.078125 0 Z M 2.953125 0 "/></g></g></g><g fill="#222121" fill-opacity="1"><g transform="translate(250.735893, 190.230156)"><g><path d="M 4.515625 8.671875 C 3.640625 8.671875 2.847656 8.601562 2.140625 8.46875 C 1.429688 8.332031 0.851562 8.148438 0.40625 7.921875 L 1.21875 3.78125 L 1.5625 3.671875 C 1.863281 3.828125 2.242188 3.953125 2.703125 4.046875 C 3.160156 4.148438 3.628906 4.203125 4.109375 4.203125 C 4.941406 4.203125 5.628906 4.09375 6.171875 3.875 C 6.722656 3.664062 7.191406 3.3125 7.578125 2.8125 C 7.960938 2.3125 8.300781 1.613281 8.59375 0.71875 L 0.4375 -20.4375 L 5.8125 -20.4375 L 10.890625 -6.21875 L 11.34375 -6.21875 L 16.28125 -20.4375 L 21.5 -20.4375 L 13.296875 1.28125 C 12.640625 3.03125 11.921875 4.4375 11.140625 5.5 C 10.359375 6.570312 9.429688 7.367188 8.359375 7.890625 C 7.296875 8.410156 6.015625 8.671875 4.515625 8.671875 Z M 4.515625 8.671875 "/></g></g></g><g fill="#222121" fill-opacity="1"><g transform="translate(272.669015, 190.230156)"><g/></g></g><g fill="#222121" fill-opacity="1"><g transform="translate(281.616394, 190.230156)"><g><path d="M 14.796875 0.390625 C 12.304688 0.390625 10.109375 -0.125 8.203125 -1.15625 C 6.304688 -2.195312 4.816406 -3.757812 3.734375 -5.84375 C 2.660156 -7.925781 2.125 -10.492188 2.125 -13.546875 C 2.125 -16.585938 2.660156 -19.148438 3.734375 -21.234375 C 4.816406 -23.316406 6.304688 -24.875 8.203125 -25.90625 C 10.109375 -26.945312 12.304688 -27.46875 14.796875 -27.46875 C 17.398438 -27.46875 19.613281 -26.957031 21.4375 -25.9375 C 23.257812 -24.925781 24.5625 -23.375 25.34375 -21.28125 L 21.4375 -18.890625 L 20.96875 -18.90625 C 20.382812 -20.320312 19.59375 -21.332031 18.59375 -21.9375 C 17.601562 -22.550781 16.335938 -22.859375 14.796875 -22.859375 C 12.546875 -22.859375 10.789062 -22.113281 9.53125 -20.625 C 8.28125 -19.132812 7.65625 -16.773438 7.65625 -13.546875 C 7.65625 -10.316406 8.28125 -7.957031 9.53125 -6.46875 C 10.789062 -4.976562 12.546875 -4.234375 14.796875 -4.234375 C 18.316406 -4.234375 20.472656 -5.945312 21.265625 -9.375 L 21.734375 -9.375 L 25.671875 -7.3125 C 24.929688 -4.75 23.664062 -2.820312 21.875 -1.53125 C 20.082031 -0.25 17.722656 0.390625 14.796875 0.390625 Z M 14.796875 0.390625 "/></g></g></g><g fill="#222121" fill-opacity="1"><g transform="translate(308.180664, 190.230156)"><g><path d="M 7.96875 0.390625 C 6.65625 0.390625 5.515625 0.148438 4.546875 -0.328125 C 3.585938 -0.816406 2.847656 -1.523438 2.328125 -2.453125 C 1.816406 -3.390625 1.5625 -4.507812 1.5625 -5.8125 C 1.5625 -7.019531 1.816406 -8.035156 2.328125 -8.859375 C 2.847656 -9.679688 3.648438 -10.351562 4.734375 -10.875 C 5.828125 -11.40625 7.25 -11.8125 9 -12.09375 C 10.226562 -12.289062 11.160156 -12.503906 11.796875 -12.734375 C 12.429688 -12.972656 12.859375 -13.238281 13.078125 -13.53125 C 13.296875 -13.832031 13.40625 -14.210938 13.40625 -14.671875 C 13.40625 -15.328125 13.175781 -15.828125 12.71875 -16.171875 C 12.269531 -16.515625 11.515625 -16.6875 10.453125 -16.6875 C 9.316406 -16.6875 8.234375 -16.429688 7.203125 -15.921875 C 6.179688 -15.421875 5.289062 -14.757812 4.53125 -13.9375 L 4.171875 -13.9375 L 2.015625 -17.171875 C 3.054688 -18.316406 4.320312 -19.210938 5.8125 -19.859375 C 7.3125 -20.503906 8.941406 -20.828125 10.703125 -20.828125 C 13.410156 -20.828125 15.367188 -20.25 16.578125 -19.09375 C 17.785156 -17.945312 18.390625 -16.316406 18.390625 -14.203125 L 18.390625 -5.328125 C 18.390625 -4.421875 18.789062 -3.96875 19.59375 -3.96875 C 19.90625 -3.96875 20.207031 -4.019531 20.5 -4.125 L 20.765625 -4.0625 L 21.140625 -0.484375 C 20.847656 -0.296875 20.445312 -0.144531 19.9375 -0.03125 C 19.4375 0.0820312 18.882812 0.140625 18.28125 0.140625 C 17.0625 0.140625 16.109375 -0.09375 15.421875 -0.5625 C 14.734375 -1.03125 14.242188 -1.765625 13.953125 -2.765625 L 13.5625 -2.796875 C 12.5625 -0.671875 10.695312 0.390625 7.96875 0.390625 Z M 9.59375 -3.453125 C 10.78125 -3.453125 11.726562 -3.847656 12.4375 -4.640625 C 13.144531 -5.429688 13.5 -6.539062 13.5 -7.96875 L 13.5 -10.046875 L 13.15625 -10.109375 C 12.84375 -9.867188 12.4375 -9.664062 11.9375 -9.5 C 11.4375 -9.332031 10.71875 -9.164062 9.78125 -9 C 8.664062 -8.8125 7.863281 -8.492188 7.375 -8.046875 C 6.894531 -7.597656 6.65625 -6.957031 6.65625 -6.125 C 6.65625 -5.25 6.910156 -4.582031 7.421875 -4.125 C 7.941406 -3.675781 8.664062 -3.453125 9.59375 -3.453125 Z M 9.59375 -3.453125 "/></g></g></g><g fill="#222121" fill-opacity="1"><g transform="translate(329.724769, 190.230156)"><g><path d="M 2.953125 0 L 2.953125 -20.4375 L 7.875 -20.4375 L 7.875 -17.6875 L 8.265625 -17.609375 C 8.929688 -18.710938 9.710938 -19.523438 10.609375 -20.046875 C 11.503906 -20.566406 12.648438 -20.828125 14.046875 -20.828125 C 15.585938 -20.828125 16.828125 -20.519531 17.765625 -19.90625 C 18.703125 -19.289062 19.390625 -18.398438 19.828125 -17.234375 L 20.203125 -17.234375 C 20.835938 -18.453125 21.648438 -19.351562 22.640625 -19.9375 C 23.640625 -20.53125 24.878906 -20.828125 26.359375 -20.828125 C 30.597656 -20.828125 32.71875 -18.46875 32.71875 -13.75 L 32.71875 0 L 27.578125 0 L 27.578125 -13.09375 C 27.578125 -14.289062 27.34375 -15.15625 26.875 -15.6875 C 26.40625 -16.21875 25.65625 -16.484375 24.625 -16.484375 C 21.800781 -16.484375 20.390625 -14.601562 20.390625 -10.84375 L 20.390625 0 L 15.265625 0 L 15.265625 -13.09375 C 15.265625 -14.289062 15.023438 -15.15625 14.546875 -15.6875 C 14.078125 -16.21875 13.320312 -16.484375 12.28125 -16.484375 C 10.957031 -16.484375 9.925781 -16.039062 9.1875 -15.15625 C 8.445312 -14.28125 8.078125 -12.878906 8.078125 -10.953125 L 8.078125 0 Z M 2.953125 0 "/></g></g></g><g fill="#222121" fill-opacity="1"><g transform="translate(365.069696, 190.230156)"><g><path d="M 2.953125 8.28125 L 2.953125 -20.4375 L 8.078125 -20.4375 L 8.078125 -17.765625 L 8.46875 -17.6875 C 9.070312 -18.726562 9.878906 -19.507812 10.890625 -20.03125 C 11.898438 -20.5625 13.085938 -20.828125 14.453125 -20.828125 C 16.085938 -20.828125 17.519531 -20.4375 18.75 -19.65625 C 19.976562 -18.875 20.9375 -17.6875 21.625 -16.09375 C 22.3125 -14.507812 22.65625 -12.546875 22.65625 -10.203125 C 22.65625 -7.867188 22.289062 -5.910156 21.5625 -4.328125 C 20.84375 -2.753906 19.84375 -1.570312 18.5625 -0.78125 C 17.28125 0 15.796875 0.390625 14.109375 0.390625 C 12.835938 0.390625 11.738281 0.175781 10.8125 -0.25 C 9.882812 -0.675781 9.101562 -1.335938 8.46875 -2.234375 L 8.078125 -2.171875 L 8.078125 8.28125 Z M 12.6875 -3.96875 C 14.21875 -3.96875 15.378906 -4.46875 16.171875 -5.46875 C 16.960938 -6.46875 17.359375 -8.046875 17.359375 -10.203125 C 17.359375 -12.367188 16.960938 -13.953125 16.171875 -14.953125 C 15.378906 -15.960938 14.21875 -16.46875 12.6875 -16.46875 C 11.257812 -16.46875 10.125 -15.945312 9.28125 -14.90625 C 8.4375 -13.875 8.015625 -12.304688 8.015625 -10.203125 C 8.015625 -8.117188 8.4375 -6.554688 9.28125 -5.515625 C 10.125 -4.484375 11.257812 -3.96875 12.6875 -3.96875 Z M 12.6875 -3.96875 "/></g></g></g><g fill="#222121" fill-opacity="1"><g transform="translate(389.540699, 190.230156)"><g><path d="M 14.28125 0.390625 C 11.675781 0.390625 9.738281 -0.582031 8.46875 -2.53125 L 8.078125 -2.46875 L 8.078125 0 L 2.953125 0 L 2.953125 -28.640625 L 8.078125 -28.640625 L 8.078125 -18.03125 L 8.46875 -17.953125 C 9.164062 -18.921875 9.992188 -19.640625 10.953125 -20.109375 C 11.910156 -20.585938 13.054688 -20.828125 14.390625 -20.828125 C 16.046875 -20.828125 17.488281 -20.4375 18.71875 -19.65625 C 19.957031 -18.875 20.921875 -17.6875 21.609375 -16.09375 C 22.304688 -14.507812 22.65625 -12.546875 22.65625 -10.203125 C 22.65625 -7.878906 22.296875 -5.925781 21.578125 -4.34375 C 20.859375 -2.757812 19.867188 -1.570312 18.609375 -0.78125 C 17.359375 0 15.914062 0.390625 14.28125 0.390625 Z M 12.71875 -3.96875 C 14.226562 -3.96875 15.378906 -4.46875 16.171875 -5.46875 C 16.960938 -6.476562 17.359375 -8.054688 17.359375 -10.203125 C 17.359375 -12.367188 16.960938 -13.953125 16.171875 -14.953125 C 15.378906 -15.960938 14.226562 -16.46875 12.71875 -16.46875 C 11.28125 -16.46875 10.132812 -15.945312 9.28125 -14.90625 C 8.4375 -13.875 8.015625 -12.304688 8.015625 -10.203125 C 8.015625 -8.109375 8.4375 -6.546875 9.28125 -5.515625 C 10.132812 -4.484375 11.28125 -3.96875 12.71875 -3.96875 Z M 12.71875 -3.96875 "/></g></g></g><g fill="#222121" fill-opacity="1"><g transform="translate(414.011677, 190.230156)"><g><path d="M 20.1875 -9.0625 L 7.0625 -9.0625 C 7.207031 -7.28125 7.710938 -5.984375 8.578125 -5.171875 C 9.441406 -4.367188 10.617188 -3.96875 12.109375 -3.96875 C 13.285156 -3.96875 14.238281 -4.1875 14.96875 -4.625 C 15.695312 -5.0625 16.285156 -5.722656 16.734375 -6.609375 L 17.109375 -6.609375 L 20.53125 -4.421875 C 19.863281 -2.992188 18.851562 -1.832031 17.5 -0.9375 C 16.15625 -0.0507812 14.359375 0.390625 12.109375 0.390625 C 10.003906 0.390625 8.179688 -0.0078125 6.640625 -0.8125 C 5.097656 -1.613281 3.910156 -2.804688 3.078125 -4.390625 C 2.242188 -5.984375 1.828125 -7.921875 1.828125 -10.203125 C 1.828125 -12.523438 2.265625 -14.484375 3.140625 -16.078125 C 4.023438 -17.671875 5.210938 -18.859375 6.703125 -19.640625 C 8.203125 -20.429688 9.882812 -20.828125 11.75 -20.828125 C 14.632812 -20.828125 16.84375 -20.0625 18.375 -18.53125 C 19.914062 -17 20.6875 -14.75 20.6875 -11.78125 C 20.6875 -10.707031 20.648438 -9.875 20.578125 -9.28125 Z M 15.78125 -12.375 C 15.726562 -13.925781 15.363281 -15.054688 14.6875 -15.765625 C 14.019531 -16.484375 13.039062 -16.84375 11.75 -16.84375 C 9.15625 -16.84375 7.628906 -15.351562 7.171875 -12.375 Z M 15.78125 -12.375 "/></g></g></g><g fill="#222121" fill-opacity="1"><g transform="translate(436.222679, 190.230156)"><g><path d="M 8.484375 0.390625 C 6.640625 0.390625 5.234375 -0.101562 4.265625 -1.09375 C 3.296875 -2.09375 2.8125 -3.601562 2.8125 -5.625 L 2.8125 -28.640625 L 7.953125 -28.640625 L 7.953125 -5.828125 C 7.953125 -4.585938 8.46875 -3.96875 9.5 -3.96875 C 9.800781 -3.96875 10.117188 -4.015625 10.453125 -4.109375 L 10.703125 -4.03125 L 11.171875 -0.09375 C 10.890625 0.0507812 10.515625 0.164062 10.046875 0.25 C 9.578125 0.34375 9.054688 0.390625 8.484375 0.390625 Z M 8.484375 0.390625 "/></g></g></g><g fill="#222121" fill-opacity="1"><g transform="translate(447.967272, 190.230156)"><g><path d="M 8.484375 0.390625 C 6.640625 0.390625 5.234375 -0.101562 4.265625 -1.09375 C 3.296875 -2.09375 2.8125 -3.601562 2.8125 -5.625 L 2.8125 -28.640625 L 7.953125 -28.640625 L 7.953125 -5.828125 C 7.953125 -4.585938 8.46875 -3.96875 9.5 -3.96875 C 9.800781 -3.96875 10.117188 -4.015625 10.453125 -4.109375 L 10.703125 -4.03125 L 11.171875 -0.09375 C 10.890625 0.0507812 10.515625 0.164062 10.046875 0.25 C 9.578125 0.34375 9.054688 0.390625 8.484375 0.390625 Z M 8.484375 0.390625 "/></g></g></g></svg>