<svg xmlns="http://www.w3.org/2000/svg" xmlns:xlink="http://www.w3.org/1999/xlink" width="500" zoomAndPan="magnify" viewBox="0 0 375 374.999991" height="500" preserveAspectRatio="xMidYMid meet" version="1.0"><defs><clipPath id="95ad60a20b"><path d="M 37.5 37.5 L 337.5 37.5 L 337.5 337.5 L 37.5 337.5 Z M 37.5 37.5 " clip-rule="nonzero"/></clipPath><clipPath id="ddbc4d2f97"><path d="M 51.78125 37.5 L 323.21875 37.5 C 331.105469 37.5 337.5 43.894531 337.5 51.78125 L 337.5 323.21875 C 337.5 331.105469 331.105469 337.5 323.21875 337.5 L 51.78125 337.5 C 43.894531 337.5 37.5 331.105469 37.5 323.21875 L 37.5 51.78125 C 37.5 43.894531 43.894531 37.5 51.78125 37.5 Z M 51.78125 37.5 " clip-rule="nonzero"/></clipPath><clipPath id="4883d5fd27"><path d="M 80.625 102 L 294.375 102 L 294.375 273 L 80.625 273 Z M 80.625 102 " clip-rule="nonzero"/></clipPath><clipPath id="e85a4fcd03"><path d="M 229.019531 224.316406 L 283.019531 224.316406 L 283.019531 264.816406 L 229.019531 264.816406 Z M 229.019531 224.316406 " clip-rule="nonzero"/></clipPath><clipPath id="006369235f"><path d="M 85.773438 102 L 187.773438 102 L 187.773438 240 L 85.773438 240 Z M 85.773438 102 " clip-rule="nonzero"/></clipPath></defs><g clip-path="url(#95ad60a20b)"><g clip-path="url(#ddbc4d2f97)"><path fill="#000000" d="M 37.5 37.5 L 337.5 37.5 L 337.5 337.5 L 37.5 337.5 Z M 37.5 37.5 " fill-opacity="1" fill-rule="nonzero"/><path stroke-linecap="butt" transform="matrix(0.75, 0, 0, 0.75, 37.500002, 37.499998)" fill="none" stroke-linejoin="miter" d="M 19.041665 0.00000328333 L 380.958356 0.00000328333 C 391.473981 0.00000328333 400.000024 8.526046 400.000024 19.041671 L 400.000024 380.958362 C 400.000024 391.473987 391.473981 400.00003 380.958356 400.00003 L 19.041665 400.00003 C 8.52604 400.00003 -0.00000271667 391.473987 -0.00000271667 380.958362 L -0.00000271667 19.041671 C -0.00000271667 8.526046 8.52604 0.00000328333 19.041665 0.00000328333 Z M 19.041665 0.00000328333 " stroke="#ffcc00" stroke-width="8" stroke-opacity="1" stroke-miterlimit="4"/></g></g><g clip-path="url(#4883d5fd27)"><path fill="#ffffff" d="M 166.125 102 L 102 102 C 90.191406 102 80.730469 111.566406 80.730469 123.375 L 80.625 251.625 C 80.625 263.433594 90.191406 273 102 273 L 273 273 C 284.808594 273 294.375 263.433594 294.375 251.625 L 294.375 144.75 C 294.375 132.941406 284.808594 123.375 273 123.375 L 187.5 123.375 Z M 166.125 102 " fill-opacity="1" fill-rule="nonzero"/></g><g clip-path="url(#e85a4fcd03)"><path fill="#00bf63" d="M 246.878906 264.648438 L 229.042969 246.804688 L 232.898438 242.949219 L 246.878906 256.933594 L 279.507812 224.3125 L 283.363281 228.167969 Z M 246.878906 264.648438 " fill-opacity="1" fill-rule="nonzero"/></g><g clip-path="url(#006369235f)"><path fill="#00bf63" d="M 182.398438 157.863281 L 175.371094 157.863281 L 175.371094 140.777344 C 175.398438 119.390625 158.007812 102 136.621094 102 C 115.234375 102 97.84375 119.390625 97.84375 140.777344 L 97.84375 157.863281 L 90.84375 157.863281 C 88.058594 157.863281 85.796875 160.125 85.796875 162.90625 L 85.796875 234.785156 C 85.796875 237.539062 88.058594 239.800781 90.84375 239.800781 L 182.425781 239.800781 C 185.207031 239.800781 187.46875 237.539062 187.46875 234.757812 L 187.46875 162.90625 C 187.441406 160.125 185.179688 157.863281 182.398438 157.863281 Z M 107.929688 140.777344 C 107.929688 124.957031 120.800781 112.085938 136.621094 112.085938 C 152.4375 112.085938 165.308594 124.957031 165.308594 140.777344 L 165.308594 157.863281 L 107.929688 157.863281 Z M 141.664062 202.457031 L 141.664062 215.714844 C 141.664062 218.496094 139.402344 220.757812 136.621094 220.757812 C 133.835938 220.757812 131.578125 218.496094 131.578125 215.714844 L 131.578125 202.457031 C 128.105469 200.636719 125.734375 197 125.734375 192.839844 C 125.734375 186.828125 130.613281 181.980469 136.59375 181.980469 C 142.601562 181.980469 147.449219 186.859375 147.449219 192.839844 C 147.507812 197 145.136719 200.636719 141.664062 202.457031 Z M 141.664062 202.457031 " fill-opacity="1" fill-rule="nonzero"/></g></svg>