<svg xmlns="http://www.w3.org/2000/svg" xmlns:xlink="http://www.w3.org/1999/xlink" width="500" zoomAndPan="magnify" viewBox="0 0 375 374.999991" height="500" preserveAspectRatio="xMidYMid meet" version="1.0"><defs><clipPath id="c951845a98"><path d="M 37.5 37.5 L 337.5 37.5 L 337.5 337.5 L 37.5 337.5 Z M 37.5 37.5 " clip-rule="nonzero"/></clipPath><clipPath id="05304aada2"><path d="M 51.78125 37.5 L 323.21875 37.5 C 331.105469 37.5 337.5 43.894531 337.5 51.78125 L 337.5 323.21875 C 337.5 331.105469 331.105469 337.5 323.21875 337.5 L 51.78125 337.5 C 43.894531 337.5 37.5 331.105469 37.5 323.21875 L 37.5 51.78125 C 37.5 43.894531 43.894531 37.5 51.78125 37.5 Z M 51.78125 37.5 " clip-rule="nonzero"/></clipPath><clipPath id="812abab3ef"><path d="M 73.929688 68.109375 L 301.179688 68.109375 L 301.179688 306.609375 L 73.929688 306.609375 Z M 73.929688 68.109375 " clip-rule="nonzero"/></clipPath><clipPath id="6ddb8079f9"><path d="M 151.65625 148.230469 L 223.65625 148.230469 L 223.65625 201.480469 L 151.65625 201.480469 Z M 151.65625 148.230469 " clip-rule="nonzero"/></clipPath></defs><g clip-path="url(#c951845a98)"><g clip-path="url(#05304aada2)"><path fill="#000000" d="M 37.5 37.5 L 337.5 37.5 L 337.5 337.5 L 37.5 337.5 Z M 37.5 37.5 " fill-opacity="1" fill-rule="nonzero"/><path stroke-linecap="butt" transform="matrix(0.75, 0, 0, 0.75, 37.500002, 37.499998)" fill="none" stroke-linejoin="miter" d="M 19.041665 0.00000328333 L 380.958356 0.00000328333 C 391.473981 0.00000328333 400.000024 8.526046 400.000024 19.041671 L 400.000024 380.958362 C 400.000024 391.473987 391.473981 400.00003 380.958356 400.00003 L 19.041665 400.00003 C 8.52604 400.00003 -0.00000271667 391.473987 -0.00000271667 380.958362 L -0.00000271667 19.041671 C -0.00000271667 8.526046 8.52604 0.00000328333 19.041665 0.00000328333 Z M 19.041665 0.00000328333 " stroke="#ffcc00" stroke-width="8" stroke-opacity="1" stroke-miterlimit="4"/></g></g><path fill="#ffffff" d="M 187.503906 127.207031 C 162.414062 127.207031 142.074219 148.570312 142.074219 174.921875 C 142.074219 201.277344 162.414062 222.640625 187.503906 222.640625 C 212.59375 222.640625 232.933594 201.277344 232.933594 174.921875 C 232.933594 148.570312 212.59375 127.207031 187.503906 127.207031 " fill-opacity="1" fill-rule="nonzero"/><g clip-path="url(#812abab3ef)"><path fill="#ffffff" d="M 262.953125 269.847656 C 252.890625 245.289062 231.769531 229.925781 187.433594 229.925781 C 143.160156 229.925781 122.035156 245.246094 111.960938 269.75 C 91.449219 248.964844 78.691406 219.796875 78.691406 187.496094 C 78.691406 124.375 127.410156 73.203125 187.503906 73.203125 C 247.597656 73.203125 296.316406 124.375 296.316406 187.496094 C 296.316406 219.847656 283.515625 249.054688 262.953125 269.847656 Z M 187.503906 68.203125 C 124.777344 68.203125 73.929688 121.613281 73.929688 187.496094 C 73.929688 221.953125 87.839844 253 110.085938 274.777344 C 130.371094 294.636719 157.585938 306.785156 187.503906 306.785156 C 217.371094 306.785156 244.542969 294.675781 264.820312 274.878906 C 287.121094 253.097656 301.078125 222.007812 301.078125 187.496094 C 301.078125 121.613281 250.226562 68.203125 187.503906 68.203125 " fill-opacity="1" fill-rule="nonzero"/></g><g clip-path="url(#6ddb8079f9)"><path fill="#00bf63" d="M 175.230469 201.46875 L 151.6875 177.917969 L 156.777344 172.824219 L 175.230469 191.285156 L 218.300781 148.226562 L 223.390625 153.316406 Z M 175.230469 201.46875 " fill-opacity="1" fill-rule="nonzero"/></g></svg>