<svg xmlns="http://www.w3.org/2000/svg" xmlns:xlink="http://www.w3.org/1999/xlink" width="500" zoomAndPan="magnify" viewBox="0 0 375 374.999991" height="500" preserveAspectRatio="xMidYMid meet" version="1.0"><defs><clipPath id="f02d51026a"><path d="M 37.5 37.5 L 337.5 37.5 L 337.5 337.5 L 37.5 337.5 Z M 37.5 37.5 " clip-rule="nonzero"/></clipPath><clipPath id="bb22828081"><path d="M 51.78125 37.5 L 323.21875 37.5 C 331.105469 37.5 337.5 43.894531 337.5 51.78125 L 337.5 323.21875 C 337.5 331.105469 331.105469 337.5 323.21875 337.5 L 51.78125 337.5 C 43.894531 337.5 37.5 331.105469 37.5 323.21875 L 37.5 51.78125 C 37.5 43.894531 43.894531 37.5 51.78125 37.5 Z M 51.78125 37.5 " clip-rule="nonzero"/></clipPath><clipPath id="a63354460b"><path d="M 174.25 241.703125 L 219 241.703125 L 219 312.546875 L 174.25 312.546875 Z M 174.25 241.703125 " clip-rule="nonzero"/></clipPath><clipPath id="da30713266"><path d="M 92.398438 113 L 127 113 L 127 185 L 92.398438 185 Z M 92.398438 113 " clip-rule="nonzero"/></clipPath><clipPath id="1bfc247df3"><path d="M 232.484375 100.273438 L 282.605469 100.273438 L 282.605469 171.308594 L 232.484375 171.308594 Z M 232.484375 100.273438 " clip-rule="nonzero"/></clipPath><clipPath id="62ddd064f7"><path d="M 122 62.367188 L 188 62.367188 L 188 93 L 122 93 Z M 122 62.367188 " clip-rule="nonzero"/></clipPath><clipPath id="befa8ed17d"><path d="M 192 62.367188 L 265 62.367188 L 265 103 L 192 103 Z M 192 62.367188 " clip-rule="nonzero"/></clipPath><clipPath id="d5f28da1b4"><path d="M 256.394531 259.769531 L 323.144531 259.769531 L 323.144531 326.519531 L 256.394531 326.519531 Z M 256.394531 259.769531 " clip-rule="nonzero"/></clipPath></defs><g clip-path="url(#f02d51026a)"><g clip-path="url(#bb22828081)"><path fill="#000000" d="M 37.5 37.5 L 337.5 37.5 L 337.5 337.5 L 37.5 337.5 Z M 37.5 37.5 " fill-opacity="1" fill-rule="nonzero"/><path stroke-linecap="butt" transform="matrix(0.75, 0, 0, 0.75, 37.500002, 37.499998)" fill="none" stroke-linejoin="miter" d="M 19.041665 0.00000328333 L 380.958356 0.00000328333 C 391.473981 0.00000328333 400.000024 8.526046 400.000024 19.041671 L 400.000024 380.958362 C 400.000024 391.473987 391.473981 400.00003 380.958356 400.00003 L 19.041665 400.00003 C 8.52604 400.00003 -0.00000271667 391.473987 -0.00000271667 380.958362 L -0.00000271667 19.041671 C -0.00000271667 8.526046 8.52604 0.00000328333 19.041665 0.00000328333 Z M 19.041665 0.00000328333 " stroke="#ffcc00" stroke-width="8" stroke-opacity="1" stroke-miterlimit="4"/></g></g><path fill="#ffffff" d="M 159.175781 309.175781 C 157.726562 309.175781 156.292969 308.558594 155.289062 307.363281 C 153.496094 305.21875 153.777344 302.027344 155.921875 300.230469 C 180.191406 279.914062 194.75 252.484375 195.863281 224.96875 C 196.285156 214.613281 193.820312 206.167969 191.738281 202.128906 C 190.886719 205.367188 189.914062 212.078125 190.378906 225.371094 C 191.164062 247.5625 177.109375 271.519531 147.414062 298.621094 C 145.347656 300.503906 142.144531 300.359375 140.261719 298.292969 C 138.375 296.226562 138.519531 293.023438 140.589844 291.136719 C 167.953125 266.167969 180.933594 244.769531 180.261719 225.726562 C 179.320312 199.113281 183.539062 193.136719 187.320312 190.902344 C 189.78125 189.449219 192.664062 189.5 195.234375 191.035156 C 202.65625 195.472656 206.527344 211.984375 205.984375 225.378906 C 204.75 255.738281 188.875 285.851562 162.421875 307.996094 C 161.476562 308.789062 160.320312 309.175781 159.175781 309.175781 " fill-opacity="1" fill-rule="nonzero"/><path fill="#ffffff" d="M 131.347656 286.328125 C 130.125 286.328125 128.90625 285.886719 127.933594 285 C 125.867188 283.113281 125.722656 279.910156 127.613281 277.847656 L 131.582031 273.515625 C 150.589844 252.808594 160.132812 242.414062 162.566406 222.480469 C 162.90625 219.703125 165.433594 217.726562 168.203125 218.066406 C 170.980469 218.40625 172.957031 220.929688 172.617188 223.707031 C 169.792969 246.867188 158.21875 259.476562 139.042969 280.367188 L 135.082031 284.679688 C 134.085938 285.773438 132.71875 286.328125 131.347656 286.328125 " fill-opacity="1" fill-rule="nonzero"/><path fill="#ffffff" d="M 216.574219 234.238281 C 216.464844 234.238281 216.351562 234.234375 216.242188 234.230469 C 213.453125 234.046875 211.335938 231.640625 211.515625 228.847656 C 211.625 227.15625 211.671875 225.5 211.65625 223.917969 C 211.433594 203.378906 206.09375 194.496094 201.808594 187.359375 C 197.554688 180.277344 191.988281 176.667969 187.230469 177.878906 C 182 179.210938 175.625 187.324219 174.859375 205.800781 C 174.746094 208.59375 172.363281 210.769531 169.59375 210.652344 C 166.800781 210.539062 164.628906 208.179688 164.746094 205.382812 C 165.585938 184.996094 173.054688 171.042969 184.726562 168.066406 C 193.988281 165.707031 203.84375 171.074219 210.453125 182.085938 C 215.144531 189.898438 221.527344 200.519531 221.78125 223.808594 C 221.804688 225.648438 221.75 227.558594 221.621094 229.5 C 221.449219 232.179688 219.222656 234.238281 216.574219 234.238281 " fill-opacity="1" fill-rule="nonzero"/><g clip-path="url(#a63354460b)"><path fill="#ffffff" d="M 179.394531 312.546875 C 178.058594 312.546875 176.722656 312.019531 175.726562 310.972656 C 173.800781 308.945312 173.882812 305.738281 175.910156 303.8125 C 191.320312 289.167969 203.304688 268.003906 208.796875 245.75 C 209.464844 243.035156 212.210938 241.375 214.925781 242.046875 C 217.636719 242.714844 219.296875 245.457031 218.628906 248.175781 C 212.6875 272.257812 199.660156 295.210938 182.882812 311.152344 C 181.90625 312.082031 180.648438 312.546875 179.394531 312.546875 " fill-opacity="1" fill-rule="nonzero"/></g><path fill="#ffffff" d="M 119.898438 268.414062 C 118.539062 268.414062 117.183594 267.871094 116.183594 266.792969 C 114.28125 264.746094 114.402344 261.542969 116.453125 259.640625 C 143.355469 234.679688 146.214844 215.105469 149.527344 192.441406 C 150.339844 186.871094 151.179688 181.113281 152.394531 175.046875 C 154.734375 163.351562 161.039062 154.226562 170.152344 149.347656 C 178.832031 144.703125 189.46875 144.363281 199.320312 148.425781 C 201.90625 149.488281 203.140625 152.453125 202.074219 155.035156 C 201.011719 157.621094 198.050781 158.855469 195.464844 157.789062 C 188.316406 154.84375 181.023438 155.019531 174.929688 158.277344 C 168.535156 161.703125 164.058594 168.359375 162.320312 177.03125 C 161.164062 182.839844 160.339844 188.464844 159.542969 193.902344 C 156.109375 217.441406 152.859375 239.671875 123.339844 267.0625 C 122.363281 267.964844 121.128906 268.414062 119.898438 268.414062 " fill-opacity="1" fill-rule="nonzero"/><path fill="#ffffff" d="M 202.210938 307.878906 C 200.898438 307.878906 199.578125 307.367188 198.585938 306.347656 C 196.636719 304.347656 196.675781 301.140625 198.679688 299.191406 C 216.386719 281.9375 226.132812 258.542969 227.648438 229.667969 C 229.097656 201.996094 222.140625 188.191406 213.59375 174.238281 C 211.09375 170.152344 210.4375 169.230469 207.820312 166.777344 C 205.777344 164.867188 205.675781 161.664062 207.585938 159.621094 C 209.496094 157.578125 212.699219 157.476562 214.742188 159.386719 C 218.273438 162.691406 219.464844 164.429688 222.230469 168.949219 C 231.328125 183.800781 239.359375 199.664062 237.757812 230.195312 C 236.109375 261.699219 225.339844 287.351562 205.746094 306.441406 C 204.761719 307.402344 203.488281 307.878906 202.210938 307.878906 " fill-opacity="1" fill-rule="nonzero"/><path fill="#ffffff" d="M 109.253906 243.59375 C 107.625 243.59375 106.027344 242.8125 105.046875 241.359375 C 103.488281 239.035156 104.105469 235.890625 106.421875 234.328125 C 122.59375 223.453125 127.703125 206.066406 132.289062 186.136719 C 132.917969 183.410156 135.628906 181.710938 138.359375 182.335938 C 141.082031 182.964844 142.785156 185.683594 142.160156 188.40625 C 137.269531 209.660156 131.292969 229.808594 112.074219 242.730469 C 111.210938 243.316406 110.226562 243.59375 109.253906 243.59375 " fill-opacity="1" fill-rule="nonzero"/><path fill="#ffffff" d="M 244.238281 192.761719 C 241.953125 192.761719 239.882812 191.207031 239.320312 188.890625 C 235.75 174.167969 230.820312 164.417969 221.738281 154.121094 C 209.078125 139.753906 191.667969 132.339844 176.316406 134.769531 C 165.109375 136.542969 156.445312 143.261719 151.925781 153.695312 C 149.90625 158.351562 148.152344 163.636719 146.402344 170.339844 C 145.699219 173.042969 142.929688 174.664062 140.226562 173.960938 C 137.519531 173.253906 135.898438 170.488281 136.605469 167.78125 C 138.484375 160.566406 140.402344 154.8125 142.632812 149.667969 C 148.496094 136.144531 160.195312 127.066406 174.734375 124.765625 C 193.761719 121.757812 214.175781 130.226562 229.335938 147.421875 C 239.472656 158.921875 245.21875 170.246094 249.160156 186.503906 C 249.820312 189.21875 248.152344 191.960938 245.433594 192.617188 C 245.035156 192.714844 244.632812 192.761719 244.238281 192.761719 " fill-opacity="1" fill-rule="nonzero"/><path fill="#ffffff" d="M 240.578125 279.878906 C 239.980469 279.878906 239.371094 279.773438 238.773438 279.546875 C 236.164062 278.546875 234.851562 275.625 235.851562 273.007812 C 246.0625 246.273438 246.496094 232.742188 243.605469 212.53125 C 243.285156 210.296875 242.964844 208.144531 242.636719 206.070312 C 242.203125 203.3125 244.085938 200.714844 246.847656 200.28125 C 249.609375 199.847656 252.203125 201.730469 252.640625 204.492188 C 252.972656 206.609375 253.300781 208.808594 253.632812 211.09375 C 256.714844 232.660156 256.253906 247.96875 245.3125 276.625 C 244.539062 278.640625 242.621094 279.878906 240.578125 279.878906 " fill-opacity="1" fill-rule="nonzero"/><path fill="#ffffff" d="M 107.042969 212.039062 C 105.804688 212.039062 104.5625 211.585938 103.585938 210.671875 C 101.542969 208.761719 101.4375 205.558594 103.347656 203.515625 C 112.03125 194.230469 113.609375 184.640625 115.609375 172.507812 C 117.128906 163.285156 118.851562 152.828125 123.949219 140.511719 C 129.75 126.488281 140.792969 115.398438 155.042969 109.28125 C 157.609375 108.179688 160.585938 109.367188 161.691406 111.9375 C 162.792969 114.507812 161.605469 117.484375 159.039062 118.585938 C 147.230469 123.65625 138.09375 132.816406 133.304688 144.382812 C 128.65625 155.621094 127.03125 165.46875 125.601562 174.15625 C 123.503906 186.882812 121.523438 198.902344 110.742188 210.433594 C 109.746094 211.496094 108.394531 212.039062 107.042969 212.039062 " fill-opacity="1" fill-rule="nonzero"/><path fill="#ffffff" d="M 246.507812 147.867188 C 244.90625 147.867188 243.332031 147.105469 242.347656 145.691406 C 234.167969 133.929688 223.121094 125.375 208.570312 119.539062 C 194.550781 113.921875 184.03125 112.292969 173.390625 114.101562 C 170.628906 114.570312 168.015625 112.714844 167.550781 109.957031 C 167.082031 107.199219 168.9375 104.585938 171.695312 104.117188 C 184.144531 102.003906 196.675781 103.863281 212.335938 110.140625 C 228.785156 116.734375 241.320312 126.472656 250.664062 139.914062 C 252.257812 142.207031 251.691406 145.363281 249.394531 146.960938 C 248.515625 147.570312 247.507812 147.867188 246.507812 147.867188 " fill-opacity="1" fill-rule="nonzero"/><path fill="#ffffff" d="M 265.480469 250.84375 C 265.234375 250.84375 264.984375 250.824219 264.738281 250.789062 C 261.96875 250.382812 260.058594 247.8125 260.464844 245.046875 C 265.769531 208.832031 261.628906 195.199219 255.359375 174.5625 L 254.542969 171.878906 C 253.210938 167.460938 251.671875 163.269531 249.972656 159.414062 C 248.847656 156.855469 250.007812 153.867188 252.5625 152.738281 C 255.117188 151.609375 258.109375 152.765625 259.242188 155.328125 C 261.105469 159.558594 262.789062 164.140625 264.238281 168.949219 L 265.046875 171.617188 C 271.476562 192.773438 276.121094 208.054688 270.480469 246.515625 C 270.113281 249.03125 267.949219 250.84375 265.480469 250.84375 " fill-opacity="1" fill-rule="nonzero"/><g clip-path="url(#da30713266)"><path fill="#ffffff" d="M 98.042969 184.371094 C 97.59375 184.371094 97.140625 184.3125 96.6875 184.1875 C 93.996094 183.441406 92.414062 180.652344 93.160156 177.957031 C 94.042969 174.753906 94.890625 170.832031 95.785156 166.671875 C 99.195312 150.851562 103.859375 129.1875 117.710938 115.015625 C 119.664062 113.015625 122.871094 112.980469 124.871094 114.933594 C 126.871094 116.890625 126.90625 120.097656 124.949219 122.097656 C 113.144531 134.171875 109.007812 153.375 105.6875 168.804688 C 104.757812 173.109375 103.882812 177.171875 102.917969 180.65625 C 102.296875 182.898438 100.261719 184.371094 98.042969 184.371094 " fill-opacity="1" fill-rule="nonzero"/></g><path fill="#ffffff" d="M 133.472656 111.523438 C 132.027344 111.523438 130.59375 110.910156 129.59375 109.71875 C 127.792969 107.578125 128.070312 104.386719 130.210938 102.585938 C 146.5625 88.839844 168.402344 81.402344 188.636719 82.695312 C 200.6875 83.457031 213.800781 86.953125 225.566406 92.523438 C 228.09375 93.722656 229.171875 96.742188 227.972656 99.269531 C 226.773438 101.792969 223.753906 102.871094 221.226562 101.675781 C 210.597656 96.636719 198.792969 93.488281 187.996094 92.800781 C 170.292969 91.671875 151.128906 98.230469 136.726562 110.335938 C 135.777344 111.132812 134.621094 111.523438 133.472656 111.523438 " fill-opacity="1" fill-rule="nonzero"/><g clip-path="url(#1bfc247df3)"><path fill="#ffffff" d="M 277.535156 171.25 C 275.242188 171.25 273.164062 169.683594 272.613281 167.355469 C 266.25 140.53125 254.304688 122.21875 235.015625 109.71875 C 232.667969 108.195312 232 105.058594 233.523438 102.710938 C 235.042969 100.367188 238.179688 99.699219 240.527344 101.21875 C 262.136719 115.226562 275.460938 135.5 282.464844 165.019531 C 283.113281 167.738281 281.429688 170.46875 278.710938 171.113281 C 278.3125 171.207031 277.921875 171.25 277.535156 171.25 " fill-opacity="1" fill-rule="nonzero"/></g><g clip-path="url(#62ddd064f7)"><path fill="#ffffff" d="M 127.691406 92.074219 C 126.144531 92.074219 124.621094 91.367188 123.625 90.035156 C 121.953125 87.789062 122.421875 84.617188 124.664062 82.949219 C 142.140625 69.945312 161.996094 62.878906 182.082031 62.519531 C 184.914062 62.4375 187.1875 64.691406 187.238281 67.488281 C 187.289062 70.285156 185.0625 72.59375 182.265625 72.640625 C 164.308594 72.96875 146.476562 79.339844 130.710938 91.074219 C 129.800781 91.75 128.742188 92.074219 127.691406 92.074219 " fill-opacity="1" fill-rule="nonzero"/></g><g clip-path="url(#befa8ed17d)"><path fill="#ffffff" d="M 259.464844 102.808594 C 258.117188 102.808594 256.773438 102.273438 255.777344 101.214844 C 241.335938 85.871094 219.515625 75.296875 197.402344 72.921875 C 194.621094 72.625 192.609375 70.128906 192.90625 67.347656 C 193.203125 64.566406 195.703125 62.554688 198.480469 62.851562 C 222.929688 65.476562 247.105469 77.222656 263.152344 94.277344 C 265.066406 96.3125 264.96875 99.515625 262.933594 101.433594 C 261.957031 102.351562 260.710938 102.808594 259.464844 102.808594 " fill-opacity="1" fill-rule="nonzero"/></g><g clip-path="url(#d5f28da1b4)"><path fill="#ffffff" d="M 289.769531 326.519531 C 271.367188 326.519531 256.394531 311.546875 256.394531 293.144531 C 256.394531 274.742188 271.367188 259.769531 289.769531 259.769531 C 308.171875 259.769531 323.144531 274.742188 323.144531 293.144531 C 323.144531 311.546875 308.171875 326.519531 289.769531 326.519531 Z M 289.769531 262.949219 C 273.117188 262.949219 259.574219 276.496094 259.574219 293.144531 C 259.574219 309.796875 273.117188 323.339844 289.769531 323.339844 C 306.417969 323.339844 319.964844 309.796875 319.964844 293.144531 C 319.964844 276.496094 306.417969 262.949219 289.769531 262.949219 Z M 289.769531 262.949219 " fill-opacity="1" fill-rule="nonzero"/></g><path fill="#ffffff" d="M 283.980469 298.675781 L 283.378906 297.640625 L 282.03125 298.417969 L 282.03125 296.863281 L 280.828125 296.863281 L 280.828125 298.417969 L 279.480469 297.640625 L 278.878906 298.679688 L 280.226562 299.457031 L 278.875 300.234375 L 279.476562 301.273438 L 280.828125 300.496094 L 280.828125 302.054688 L 282.03125 302.054688 L 282.03125 300.492188 L 283.382812 301.273438 L 283.984375 300.234375 L 282.628906 299.457031 Z M 283.980469 298.675781 " fill-opacity="1" fill-rule="nonzero"/><path fill="#ffffff" d="M 292.320312 298.679688 L 291.71875 297.640625 L 290.371094 298.417969 L 290.371094 296.863281 L 289.167969 296.863281 L 289.167969 298.417969 L 287.820312 297.640625 L 287.21875 298.679688 L 288.570312 299.457031 L 287.214844 300.234375 L 287.816406 301.273438 L 289.167969 300.496094 L 289.167969 302.054688 L 290.371094 302.054688 L 290.371094 300.496094 L 291.722656 301.273438 L 292.324219 300.234375 L 290.972656 299.457031 Z M 292.320312 298.679688 " fill-opacity="1" fill-rule="nonzero"/><path fill="#ffffff" d="M 300.664062 298.679688 L 300.0625 297.644531 L 298.710938 298.421875 L 298.710938 296.863281 L 297.511719 296.863281 L 297.511719 298.421875 L 296.15625 297.640625 L 295.558594 298.679688 L 296.910156 299.457031 L 295.558594 300.238281 L 296.15625 301.277344 L 297.511719 300.496094 L 297.511719 302.054688 L 298.710938 302.054688 L 298.710938 300.496094 L 300.0625 301.273438 L 300.660156 300.234375 L 299.3125 299.457031 Z M 300.664062 298.679688 " fill-opacity="1" fill-rule="nonzero"/><path fill="#ffffff" d="M 301.648438 285.496094 L 299.722656 285.496094 L 299.722656 281.664062 C 299.722656 279.007812 298.683594 276.515625 296.804688 274.640625 C 294.917969 272.757812 292.421875 271.722656 289.78125 271.722656 C 284.292969 271.722656 279.828125 276.179688 279.828125 281.664062 L 279.828125 285.496094 L 277.847656 285.496094 C 275.339844 285.496094 273.300781 287.535156 273.300781 290.039062 L 273.300781 308.878906 C 273.300781 311.386719 275.339844 313.421875 277.847656 313.421875 L 301.679688 313.421875 C 304.1875 313.421875 306.238281 311.375 306.238281 308.859375 L 306.238281 290.082031 C 306.238281 287.554688 304.179688 285.496094 301.648438 285.496094 Z M 282.875 281.664062 C 282.875 277.867188 285.964844 274.773438 289.769531 274.773438 C 291.59375 274.773438 293.328125 275.496094 294.632812 276.800781 C 295.9375 278.089844 296.652344 279.820312 296.652344 281.664062 L 296.652344 285.496094 L 282.875 285.496094 Z M 303.179688 308.878906 C 303.179688 309.703125 302.507812 310.375 301.679688 310.375 L 277.847656 310.375 C 277.023438 310.375 276.359375 309.703125 276.359375 308.890625 L 276.359375 290.050781 C 276.359375 289.226562 277.03125 288.5625 277.847656 288.5625 L 301.648438 288.5625 C 302.496094 288.5625 303.179688 289.246094 303.179688 290.089844 Z M 303.179688 308.878906 " fill-opacity="1" fill-rule="nonzero"/></svg>