<svg xmlns="http://www.w3.org/2000/svg" xmlns:xlink="http://www.w3.org/1999/xlink" width="500" zoomAndPan="magnify" viewBox="0 0 375 374.999991" height="500" preserveAspectRatio="xMidYMid meet" version="1.0"><defs><clipPath id="d229e8da22"><path d="M 85.777344 221.039062 L 187.777344 221.039062 L 187.777344 323.039062 L 85.777344 323.039062 Z M 85.777344 221.039062 " clip-rule="nonzero"/></clipPath><clipPath id="6efb6ed90c"><path d="M 187.210938 221.039062 L 289.210938 221.039062 L 289.210938 323.039062 L 187.210938 323.039062 Z M 187.210938 221.039062 " clip-rule="nonzero"/></clipPath><clipPath id="9734489fc6"><path d="M 86.875 122.800781 L 187.90625 122.800781 L 187.90625 218.671875 L 86.875 218.671875 Z M 86.875 122.800781 " clip-rule="nonzero"/></clipPath><clipPath id="46966a4eb3"><path d="M 187.09375 122.800781 L 289.222656 122.800781 L 289.222656 218.671875 L 187.09375 218.671875 Z M 187.09375 122.800781 " clip-rule="nonzero"/></clipPath><clipPath id="bf11cffec4"><path d="M 130 152 L 242 152 L 242 208 L 130 208 Z M 130 152 " clip-rule="nonzero"/></clipPath><clipPath id="6885994988"><path d="M 127.179688 151.929688 L 186.046875 93.0625 L 244.914062 151.929688 L 186.046875 210.796875 Z M 127.179688 151.929688 " clip-rule="nonzero"/></clipPath><clipPath id="4dc6c00f82"><path d="M 127.179688 151.929688 L 186.046875 93.0625 L 244.914062 151.929688 L 186.046875 210.796875 Z M 127.179688 151.929688 " clip-rule="nonzero"/></clipPath><clipPath id="cf92911d4e"><path d="M 128 150 L 244 150 L 244 210 L 128 210 Z M 128 150 " clip-rule="nonzero"/></clipPath><clipPath id="fc2c0be22e"><path d="M 127.179688 151.929688 L 186.046875 93.0625 L 244.914062 151.929688 L 186.046875 210.796875 Z M 127.179688 151.929688 " clip-rule="nonzero"/></clipPath><clipPath id="3908f5cd15"><path d="M 127.179688 151.929688 L 186.046875 93.0625 L 244.914062 151.929688 L 186.046875 210.796875 Z M 127.179688 151.929688 " clip-rule="nonzero"/></clipPath><clipPath id="78f58008e2"><path d="M 140 157 L 232 157 L 232 204 L 140 204 Z M 140 157 " clip-rule="nonzero"/></clipPath><clipPath id="5c2bf06063"><path d="M 137.796875 157.183594 L 186.058594 108.921875 L 234.316406 157.183594 L 186.058594 205.441406 Z M 137.796875 157.183594 " clip-rule="nonzero"/></clipPath><clipPath id="367cedc124"><path d="M 137.796875 157.183594 L 186.058594 108.921875 L 234.316406 157.183594 L 186.058594 205.441406 Z M 137.796875 157.183594 " clip-rule="nonzero"/></clipPath><clipPath id="3c5369fb3c"><path d="M 138 155 L 234 155 L 234 205 L 138 205 Z M 138 155 " clip-rule="nonzero"/></clipPath><clipPath id="25410feba6"><path d="M 137.796875 157.183594 L 186.058594 108.921875 L 234.316406 157.183594 L 186.058594 205.441406 Z M 137.796875 157.183594 " clip-rule="nonzero"/></clipPath><clipPath id="82c1861c22"><path d="M 137.796875 157.183594 L 186.058594 108.921875 L 234.316406 157.183594 L 186.058594 205.441406 Z M 137.796875 157.183594 " clip-rule="nonzero"/></clipPath><clipPath id="83bedc078b"><path d="M 184.605469 52.289062 L 255.855469 52.289062 L 255.855469 123.539062 L 184.605469 123.539062 Z M 184.605469 52.289062 " clip-rule="nonzero"/></clipPath><clipPath id="01c57be4bf"><path d="M 126 63 L 246 63 L 246 124 L 126 124 Z M 126 63 " clip-rule="nonzero"/></clipPath><clipPath id="a1237b6036"><path d="M 248.558594 123.546875 L 185.980469 186.125 L 123.402344 123.546875 L 185.980469 60.96875 Z M 248.558594 123.546875 " clip-rule="nonzero"/></clipPath><clipPath id="9aacafc637"><path d="M 248.558594 123.546875 L 185.980469 186.125 L 123.402344 123.546875 L 185.980469 60.96875 Z M 248.558594 123.546875 " clip-rule="nonzero"/></clipPath><clipPath id="7856243482"><path d="M 124 61 L 248 61 L 248 126 L 124 126 Z M 124 61 " clip-rule="nonzero"/></clipPath><clipPath id="0dfe144a36"><path d="M 248.558594 123.546875 L 185.980469 186.125 L 123.402344 123.546875 L 185.980469 60.96875 Z M 248.558594 123.546875 " clip-rule="nonzero"/></clipPath><clipPath id="1b0f81dba2"><path d="M 248.558594 123.546875 L 185.980469 186.125 L 123.402344 123.546875 L 185.980469 60.96875 Z M 248.558594 123.546875 " clip-rule="nonzero"/></clipPath><clipPath id="b8f51e6615"><path d="M 114 51.949219 L 186.664062 51.949219 L 186.664062 124.699219 L 114 124.699219 Z M 114 51.949219 " clip-rule="nonzero"/></clipPath></defs><g clip-path="url(#d229e8da22)"><path fill="#038989" d="M 85.777344 220.921875 L 187.894531 220.921875 L 187.894531 323.039062 Z M 85.777344 220.921875 " fill-opacity="1" fill-rule="nonzero"/></g><g clip-path="url(#6efb6ed90c)"><path fill="#038989" d="M 187.09375 323.039062 L 187.09375 220.921875 L 289.210938 220.921875 Z M 187.09375 323.039062 " fill-opacity="1" fill-rule="nonzero"/></g><g clip-path="url(#9734489fc6)"><path fill="#038989" d="M 86.875 122.800781 L 187.992188 122.800781 L 187.992188 218.671875 L 86.875 218.671875 Z M 86.875 122.800781 " fill-opacity="1" fill-rule="nonzero"/></g><g clip-path="url(#46966a4eb3)"><path fill="#038989" d="M 187.09375 122.800781 L 289.332031 122.800781 L 289.332031 218.671875 L 187.09375 218.671875 Z M 187.09375 122.800781 " fill-opacity="1" fill-rule="nonzero"/></g><g clip-path="url(#bf11cffec4)"><g clip-path="url(#6885994988)"><g clip-path="url(#4dc6c00f82)"><path fill="#ffffff" d="M 130.289062 152.113281 L 186.097656 207.917969 L 241.902344 152.113281 Z M 130.289062 152.113281 " fill-opacity="1" fill-rule="nonzero"/></g></g></g><g clip-path="url(#cf92911d4e)"><g clip-path="url(#fc2c0be22e)"><g clip-path="url(#3908f5cd15)"><path fill="#ffffff" d="M 243.183594 153.394531 L 187.378906 209.199219 C 186.464844 210.117188 185.367188 210.117188 184.632812 209.382812 L 128.828125 153.578125 C 128.277344 153.027344 128.09375 152.113281 128.460938 151.382812 C 128.460938 150.648438 129.375 150.101562 130.109375 150.101562 L 241.722656 150.101562 C 242.453125 150.101562 243.183594 150.464844 243.550781 151.199219 C 243.734375 152.113281 243.734375 152.84375 243.183594 153.394531 Z M 185.914062 205.175781 L 236.964844 154.125 L 134.863281 154.125 Z M 185.914062 205.175781 " fill-opacity="1" fill-rule="nonzero"/></g></g></g><g clip-path="url(#78f58008e2)"><g clip-path="url(#5c2bf06063)"><g clip-path="url(#367cedc124)"><path fill="#038989" d="M 140.34375 157.332031 L 186.066406 203.050781 L 231.785156 157.332031 Z M 140.34375 157.332031 " fill-opacity="1" fill-rule="nonzero"/></g></g></g><g clip-path="url(#3c5369fb3c)"><g clip-path="url(#25410feba6)"><g clip-path="url(#82c1861c22)"><path fill="#038989" d="M 232.835938 158.382812 L 187.113281 204.101562 C 186.367188 204.851562 185.464844 204.851562 184.867188 204.25 L 139.144531 158.53125 C 138.695312 158.082031 138.546875 157.332031 138.847656 156.730469 C 138.847656 156.132812 139.59375 155.683594 140.195312 155.683594 L 231.636719 155.683594 C 232.234375 155.683594 232.835938 155.984375 233.136719 156.582031 C 233.285156 157.332031 233.285156 157.929688 232.835938 158.382812 Z M 185.914062 200.804688 L 227.738281 158.980469 L 144.09375 158.980469 Z M 185.914062 200.804688 " fill-opacity="1" fill-rule="nonzero"/></g></g></g><path fill="#038989" d="M 254.074219 121.53125 L 254.074219 53.511719 L 186.050781 53.511719 Z M 254.074219 121.53125 " fill-opacity="1" fill-rule="nonzero"/><g clip-path="url(#83bedc078b)"><path fill="#038989" d="M 186.050781 51.949219 L 254.074219 51.949219 C 255.1875 51.949219 255.855469 52.617188 255.855469 53.511719 L 255.855469 121.53125 C 255.855469 122.199219 255.410156 122.871094 254.742188 123.09375 C 254.296875 123.539062 253.402344 123.316406 252.957031 122.871094 L 184.9375 54.847656 C 184.492188 54.402344 184.265625 53.734375 184.492188 53.066406 C 184.9375 52.394531 185.382812 51.949219 186.050781 51.949219 Z M 252.511719 55.292969 L 190.289062 55.292969 L 252.511719 117.519531 Z M 252.511719 55.292969 " fill-opacity="1" fill-rule="nonzero"/></g><g clip-path="url(#01c57be4bf)"><g clip-path="url(#a1237b6036)"><g clip-path="url(#9aacafc637)"><path fill="#038989" d="M 245.242188 123.351562 L 185.71875 63.828125 L 126.195312 123.351562 Z M 245.242188 123.351562 " fill-opacity="1" fill-rule="nonzero"/></g></g></g><g clip-path="url(#7856243482)"><g clip-path="url(#0dfe144a36)"><g clip-path="url(#1b0f81dba2)"><path fill="#038989" d="M 124.832031 121.984375 L 184.351562 62.460938 C 185.328125 61.484375 186.5 61.484375 187.28125 62.265625 L 246.804688 121.789062 C 247.386719 122.375 247.582031 123.351562 247.195312 124.132812 C 247.195312 124.910156 246.21875 125.496094 245.4375 125.496094 L 126.390625 125.496094 C 125.609375 125.496094 124.832031 125.105469 124.441406 124.328125 C 124.246094 123.351562 124.246094 122.570312 124.832031 121.984375 Z M 185.914062 66.753906 L 131.464844 121.203125 L 240.363281 121.203125 Z M 185.914062 66.753906 " fill-opacity="1" fill-rule="nonzero"/></g></g></g><path fill="#038989" d="M 184.632812 53.753906 L 115.796875 53.753906 L 115.796875 122.589844 Z M 184.632812 53.753906 " fill-opacity="1" fill-rule="nonzero"/><g clip-path="url(#b8f51e6615)"><path fill="#038989" d="M 114.21875 122.589844 L 114.21875 53.753906 C 114.21875 52.625 114.894531 51.949219 115.796875 51.949219 L 184.632812 51.949219 C 185.308594 51.949219 185.984375 52.402344 186.210938 53.078125 C 186.664062 53.527344 186.4375 54.433594 185.984375 54.882812 L 117.152344 123.71875 C 116.699219 124.167969 116.023438 124.394531 115.347656 124.167969 C 114.667969 123.71875 114.21875 123.265625 114.21875 122.589844 Z M 117.601562 55.335938 L 117.601562 118.300781 L 180.570312 55.335938 Z M 117.601562 55.335938 " fill-opacity="1" fill-rule="nonzero"/></g></svg>