<svg xmlns="http://www.w3.org/2000/svg" xmlns:xlink="http://www.w3.org/1999/xlink" width="500" zoomAndPan="magnify" viewBox="0 0 375 374.999991" height="500" preserveAspectRatio="xMidYMid meet" version="1.0"><defs><clipPath id="d7473c157a"><path d="M 159 45.449219 L 208 45.449219 L 208 92 L 159 92 Z M 159 45.449219 " clip-rule="nonzero"/></clipPath><clipPath id="668d376b2b"><path d="M 283 159 L 329.699219 159 L 329.699219 208 L 283 208 Z M 283 159 " clip-rule="nonzero"/></clipPath><clipPath id="8613ae75fe"><path d="M 167 283 L 217 283 L 217 329.699219 L 167 329.699219 Z M 167 283 " clip-rule="nonzero"/></clipPath><clipPath id="80baa4b28e"><path d="M 45.449219 167 L 92 167 L 92 217 L 45.449219 217 Z M 45.449219 167 " clip-rule="nonzero"/></clipPath></defs><g clip-path="url(#d7473c157a)"><path fill="#2f2e2d" d="M 207.546875 64.328125 C 207.621094 65.324219 207.078125 66.050781 206.308594 66.683594 C 203.253906 69.203125 200.226562 71.769531 197.132812 74.242188 C 196.300781 74.914062 196.117188 75.546875 196.382812 76.5625 C 197.371094 80.316406 198.25 84.09375 199.183594 87.855469 C 199.535156 89.289062 199.199219 90.503906 198.023438 91.410156 C 196.988281 92.207031 195.601562 92.164062 194.296875 91.347656 C 190.878906 89.199219 187.460938 87.070312 184.074219 84.875 C 183.339844 84.402344 182.839844 84.441406 182.113281 84.894531 C 178.871094 86.96875 175.570312 88.964844 172.296875 91.011719 C 171.375 91.601562 170.386719 91.917969 169.308594 91.664062 C 167.648438 91.265625 166.707031 89.605469 167.132812 87.910156 C 168.15625 83.816406 169.179688 79.71875 170.25 75.628906 C 170.414062 75.003906 170.277344 74.652344 169.824219 74.269531 C 166.921875 71.832031 164.039062 69.382812 161.140625 66.945312 C 160.070312 66.050781 159.09375 65.140625 159.210938 63.546875 C 159.320312 62.007812 160.480469 60.792969 162.027344 60.691406 C 166.289062 60.410156 170.550781 60.113281 174.816406 59.859375 C 175.488281 59.820312 175.6875 59.460938 175.90625 58.941406 C 177.335938 55.40625 178.796875 51.890625 180.246094 48.355469 C 180.382812 48.039062 180.5 47.703125 180.65625 47.394531 C 181.261719 46.191406 182.222656 45.519531 183.582031 45.535156 C 184.960938 45.554688 185.894531 46.253906 186.402344 47.511719 C 187.925781 51.3125 189.449219 55.109375 190.933594 58.925781 C 191.234375 59.6875 191.578125 60.046875 192.503906 60.101562 C 196.238281 60.300781 199.972656 60.621094 203.707031 60.910156 C 204.257812 60.953125 204.828125 61.019531 205.363281 61.171875 C 206.734375 61.554688 207.558594 62.757812 207.546875 64.328125 " fill-opacity="1" fill-rule="nonzero"/></g><path fill="#2f2e2d" d="M 288.960938 114.503906 C 288.308594 115.257812 287.402344 115.386719 286.414062 115.292969 C 282.472656 114.914062 278.519531 114.585938 274.585938 114.152344 C 273.515625 114.035156 272.945312 114.351562 272.410156 115.257812 C 270.460938 118.613281 268.414062 121.902344 266.410156 125.21875 C 265.648438 126.488281 264.550781 127.105469 263.074219 126.914062 C 261.789062 126.75 260.835938 125.746094 260.492188 124.230469 C 259.585938 120.304688 258.671875 116.382812 257.835938 112.4375 C 257.644531 111.578125 257.265625 111.25 256.429688 111.0625 C 252.667969 110.226562 248.925781 109.3125 245.164062 108.449219 C 244.09375 108.195312 243.171875 107.742188 242.589844 106.792969 C 241.703125 105.339844 242.199219 103.5 243.707031 102.59375 C 247.332031 100.429688 250.949219 98.246094 254.601562 96.113281 C 255.144531 95.796875 255.316406 95.445312 255.261719 94.855469 C 254.925781 91.082031 254.617188 87.3125 254.292969 83.535156 C 254.164062 82.148438 254.121094 80.804688 255.324219 79.761719 C 256.496094 78.757812 258.179688 78.710938 259.351562 79.746094 C 262.558594 82.554688 265.785156 85.355469 268.976562 88.191406 C 269.484375 88.644531 269.875 88.535156 270.390625 88.320312 C 273.90625 86.832031 277.433594 85.375 280.949219 83.90625 C 281.277344 83.769531 281.59375 83.613281 281.917969 83.515625 C 283.199219 83.089844 284.347656 83.296875 285.300781 84.269531 C 286.269531 85.253906 286.433594 86.40625 285.898438 87.667969 C 284.285156 91.429688 282.679688 95.191406 281.039062 98.933594 C 280.703125 99.6875 280.695312 100.183594 281.3125 100.875 C 283.8125 103.65625 286.226562 106.519531 288.664062 109.367188 C 289.027344 109.792969 289.378906 110.238281 289.652344 110.726562 C 290.339844 111.957031 290.078125 113.398438 288.960938 114.503906 " fill-opacity="1" fill-rule="nonzero"/><g clip-path="url(#668d376b2b)"><path fill="#2f2e2d" d="M 311.050781 207.546875 C 310.054688 207.621094 309.328125 207.078125 308.695312 206.308594 C 306.175781 203.253906 303.609375 200.226562 301.125 197.132812 C 300.464844 196.300781 299.828125 196.117188 298.816406 196.382812 C 295.0625 197.371094 291.28125 198.25 287.519531 199.183594 C 286.089844 199.535156 284.875 199.199219 283.96875 198.023438 C 283.171875 196.988281 283.214844 195.601562 284.03125 194.296875 C 286.179688 190.878906 288.308594 187.453125 290.503906 184.074219 C 290.972656 183.339844 290.9375 182.832031 290.484375 182.113281 C 288.410156 178.871094 286.414062 175.570312 284.367188 172.296875 C 283.785156 171.375 283.460938 170.394531 283.714844 169.308594 C 284.113281 167.648438 285.761719 166.707031 287.464844 167.132812 C 291.5625 168.15625 295.660156 169.179688 299.75 170.25 C 300.363281 170.414062 300.726562 170.277344 301.109375 169.832031 C 303.546875 166.921875 305.992188 164.039062 308.433594 161.140625 C 309.328125 160.070312 310.234375 159.09375 311.832031 159.210938 C 313.371094 159.320312 314.585938 160.480469 314.6875 162.027344 C 314.96875 166.289062 315.265625 170.550781 315.519531 174.816406 C 315.554688 175.488281 315.917969 175.6875 316.433594 175.90625 C 319.96875 177.335938 323.488281 178.796875 327.023438 180.246094 C 327.339844 180.382812 327.675781 180.5 327.984375 180.65625 C 329.1875 181.261719 329.859375 182.222656 329.839844 183.582031 C 329.824219 184.960938 329.132812 185.894531 327.867188 186.402344 C 324.066406 187.925781 320.269531 189.449219 316.453125 190.933594 C 315.691406 191.234375 315.328125 191.578125 315.273438 192.503906 C 315.074219 196.238281 314.757812 199.972656 314.46875 203.707031 C 314.421875 204.257812 314.359375 204.828125 314.207031 205.363281 C 313.824219 206.734375 312.621094 207.558594 311.050781 207.546875 " fill-opacity="1" fill-rule="nonzero"/></g><path fill="#2f2e2d" d="M 260.871094 288.960938 C 260.121094 288.308594 259.992188 287.402344 260.082031 286.414062 C 260.464844 282.472656 260.789062 278.519531 261.226562 274.585938 C 261.34375 273.515625 261.027344 272.945312 260.121094 272.410156 C 256.765625 270.453125 253.476562 268.414062 250.160156 266.410156 C 248.890625 265.648438 248.273438 264.550781 248.464844 263.074219 C 248.625 261.789062 249.632812 260.835938 251.148438 260.484375 C 255.070312 259.585938 258.996094 258.671875 262.9375 257.835938 C 263.800781 257.644531 264.125 257.265625 264.316406 256.441406 C 265.152344 252.667969 266.066406 248.925781 266.925781 245.164062 C 267.179688 244.09375 267.644531 243.171875 268.585938 242.589844 C 270.035156 241.691406 271.875 242.199219 272.78125 243.707031 C 274.949219 247.332031 277.132812 250.949219 279.261719 254.601562 C 279.582031 255.144531 279.933594 255.316406 280.523438 255.261719 C 284.292969 254.925781 288.066406 254.617188 291.84375 254.292969 C 293.230469 254.164062 294.5625 254.128906 295.613281 255.324219 C 296.621094 256.496094 296.667969 258.179688 295.632812 259.351562 C 292.824219 262.558594 290.023438 265.785156 287.175781 268.976562 C 286.730469 269.472656 286.839844 269.875 287.058594 270.390625 C 288.546875 273.90625 290.003906 277.421875 291.472656 280.949219 C 291.609375 281.277344 291.761719 281.59375 291.871094 281.917969 C 292.289062 283.199219 292.082031 284.347656 291.109375 285.300781 C 290.121094 286.261719 288.972656 286.433594 287.71875 285.898438 C 283.957031 284.285156 280.1875 282.679688 276.445312 281.039062 C 275.691406 280.703125 275.195312 280.695312 274.503906 281.3125 C 271.722656 283.8125 268.859375 286.226562 266.011719 288.664062 C 265.585938 289.027344 265.140625 289.378906 264.652344 289.652344 C 263.417969 290.339844 261.976562 290.078125 260.871094 288.960938 " fill-opacity="1" fill-rule="nonzero"/><g clip-path="url(#8613ae75fe)"><path fill="#2f2e2d" d="M 167.828125 311.050781 C 167.757812 310.054688 168.308594 309.328125 169.070312 308.695312 C 172.125 306.175781 175.152344 303.609375 178.246094 301.136719 C 179.078125 300.464844 179.257812 299.839844 178.996094 298.816406 C 178.007812 295.0625 177.128906 291.28125 176.195312 287.519531 C 175.84375 286.089844 176.175781 284.875 177.355469 283.96875 C 178.390625 283.171875 179.777344 283.214844 181.082031 284.03125 C 184.5 286.179688 187.925781 288.308594 191.304688 290.503906 C 192.039062 290.972656 192.539062 290.9375 193.261719 290.484375 C 196.507812 288.410156 199.808594 286.414062 203.078125 284.367188 C 204.003906 283.777344 204.984375 283.460938 206.070312 283.714844 C 207.730469 284.113281 208.671875 285.773438 208.246094 287.464844 C 207.222656 291.5625 206.199219 295.660156 205.128906 299.75 C 204.964844 300.375 205.101562 300.726562 205.554688 301.109375 C 208.453125 303.546875 211.335938 305.992188 214.238281 308.433594 C 215.308594 309.328125 216.285156 310.234375 216.167969 311.832031 C 216.058594 313.371094 214.898438 314.585938 213.347656 314.6875 C 209.089844 314.96875 204.828125 315.265625 200.558594 315.519531 C 199.890625 315.554688 199.691406 315.917969 199.472656 316.433594 C 198.039062 319.96875 196.582031 323.488281 195.128906 327.023438 C 194.996094 327.339844 194.875 327.675781 194.722656 327.984375 C 194.117188 329.1875 193.15625 329.859375 191.796875 329.839844 C 190.417969 329.824219 189.484375 329.132812 188.976562 327.867188 C 187.453125 324.066406 185.929688 320.269531 184.445312 316.453125 C 184.144531 315.691406 183.800781 315.328125 182.875 315.273438 C 179.140625 315.074219 175.40625 314.757812 171.671875 314.46875 C 171.121094 314.421875 170.550781 314.359375 170.015625 314.207031 C 168.644531 313.824219 167.820312 312.621094 167.828125 311.050781 " fill-opacity="1" fill-rule="nonzero"/></g><path fill="#2f2e2d" d="M 86.414062 260.871094 C 87.070312 260.121094 87.976562 259.992188 88.964844 260.09375 C 92.90625 260.464844 96.859375 260.789062 100.792969 261.226562 C 101.859375 261.34375 102.433594 261.027344 102.96875 260.121094 C 104.925781 256.765625 106.964844 253.476562 108.96875 250.148438 C 109.738281 248.890625 110.824219 248.273438 112.304688 248.464844 C 113.589844 248.625 114.542969 249.632812 114.886719 251.148438 C 115.792969 255.070312 116.707031 258.996094 117.550781 262.9375 C 117.730469 263.800781 118.113281 264.125 118.945312 264.316406 C 122.707031 265.152344 126.453125 266.066406 130.203125 266.925781 C 131.28125 267.179688 132.207031 267.644531 132.789062 268.585938 C 133.675781 270.035156 133.175781 271.875 131.671875 272.773438 C 128.046875 274.949219 124.429688 277.125 120.777344 279.261719 C 120.226562 279.582031 120.0625 279.933594 120.117188 280.523438 C 120.453125 284.292969 120.761719 288.066406 121.085938 291.84375 C 121.203125 293.230469 121.257812 294.574219 120.042969 295.613281 C 118.882812 296.621094 117.199219 296.667969 116.027344 295.632812 C 112.820312 292.824219 109.59375 290.023438 106.402344 287.1875 C 105.894531 286.730469 105.503906 286.839844 104.988281 287.058594 C 101.472656 288.546875 97.945312 290.003906 94.429688 291.472656 C 94.101562 291.609375 93.785156 291.761719 93.457031 291.863281 C 92.179688 292.289062 91.03125 292.082031 90.070312 291.109375 C 89.109375 290.121094 88.945312 288.972656 89.480469 287.710938 C 91.09375 283.949219 92.699219 280.1875 94.339844 276.445312 C 94.671875 275.691406 94.683594 275.195312 94.066406 274.503906 C 91.5625 271.722656 89.152344 268.859375 86.714844 266.011719 C 86.351562 265.585938 86 265.140625 85.726562 264.652344 C 85.039062 263.417969 85.300781 261.976562 86.414062 260.871094 " fill-opacity="1" fill-rule="nonzero"/><g clip-path="url(#80baa4b28e)"><path fill="#2f2e2d" d="M 64.328125 167.828125 C 65.324219 167.757812 66.050781 168.300781 66.683594 169.070312 C 69.203125 172.125 71.769531 175.152344 74.25 178.246094 C 74.921875 179.078125 75.539062 179.257812 76.5625 178.996094 C 80.316406 178.007812 84.09375 177.128906 87.855469 176.195312 C 89.289062 175.84375 90.503906 176.175781 91.410156 177.355469 C 92.207031 178.390625 92.164062 179.777344 91.335938 181.082031 C 89.199219 184.5 87.070312 187.925781 84.875 191.304688 C 84.402344 192.039062 84.441406 192.546875 84.894531 193.261719 C 86.96875 196.507812 88.964844 199.808594 91.011719 203.078125 C 91.589844 204.003906 91.917969 204.992188 91.664062 206.070312 C 91.265625 207.730469 89.617188 208.671875 87.910156 208.246094 C 83.816406 207.222656 79.71875 206.199219 75.628906 205.128906 C 75.011719 204.964844 74.652344 205.101562 74.269531 205.546875 C 71.832031 208.453125 69.382812 211.335938 66.945312 214.238281 C 66.050781 215.308594 65.132812 216.285156 63.546875 216.167969 C 62.007812 216.058594 60.792969 214.898438 60.691406 213.347656 C 60.410156 209.089844 60.113281 204.828125 59.859375 200.558594 C 59.820312 199.890625 59.460938 199.679688 58.941406 199.472656 C 55.40625 198.039062 51.882812 196.582031 48.355469 195.128906 C 48.039062 194.996094 47.703125 194.875 47.394531 194.722656 C 46.199219 194.117188 45.519531 193.15625 45.535156 191.796875 C 45.554688 190.417969 46.242188 189.484375 47.511719 188.976562 C 51.3125 187.453125 55.109375 185.929688 58.925781 184.445312 C 59.6875 184.144531 60.046875 183.800781 60.101562 182.875 C 60.292969 179.140625 60.621094 175.40625 60.910156 171.671875 C 60.953125 171.121094 61.019531 170.550781 61.171875 170.015625 C 61.554688 168.65625 62.757812 167.820312 64.328125 167.828125 " fill-opacity="1" fill-rule="nonzero"/></g><path fill="#2f2e2d" d="M 114.503906 86.414062 C 115.257812 87.070312 115.386719 87.976562 115.292969 88.964844 C 114.914062 92.90625 114.585938 96.859375 114.152344 100.792969 C 114.035156 101.859375 114.351562 102.433594 115.257812 102.96875 C 118.613281 104.914062 121.902344 106.964844 125.226562 108.96875 C 126.488281 109.730469 127.105469 110.824219 126.914062 112.304688 C 126.75 113.589844 125.746094 114.542969 124.230469 114.894531 C 120.304688 115.792969 116.382812 116.707031 112.4375 117.542969 C 111.578125 117.730469 111.25 118.113281 111.0625 118.9375 C 110.226562 122.707031 109.3125 126.453125 108.441406 130.214844 C 108.195312 131.28125 107.734375 132.207031 106.792969 132.789062 C 105.339844 133.683594 103.5 133.175781 102.59375 131.671875 C 100.429688 128.046875 98.253906 124.429688 96.113281 120.777344 C 95.796875 120.234375 95.445312 120.0625 94.855469 120.117188 C 91.082031 120.453125 87.3125 120.761719 83.535156 121.085938 C 82.148438 121.214844 80.8125 121.25 79.761719 120.054688 C 78.757812 118.882812 78.710938 117.199219 79.746094 116.027344 C 82.554688 112.820312 85.355469 109.59375 88.203125 106.402344 C 88.644531 105.902344 88.535156 105.503906 88.320312 104.988281 C 86.832031 101.472656 85.375 97.945312 83.90625 94.429688 C 83.769531 94.113281 83.613281 93.785156 83.507812 93.457031 C 83.089844 92.179688 83.296875 91.03125 84.269531 90.078125 C 85.253906 89.117188 86.40625 88.945312 87.65625 89.480469 C 91.417969 91.09375 95.191406 92.699219 98.933594 94.339844 C 99.6875 94.671875 100.183594 94.691406 100.875 94.066406 C 103.65625 91.5625 106.519531 89.152344 109.367188 86.714844 C 109.792969 86.351562 110.238281 86 110.726562 85.726562 C 111.957031 85.039062 113.398438 85.300781 114.503906 86.414062 " fill-opacity="1" fill-rule="nonzero"/><path fill="#2f2e2d" d="M 249.707031 159.144531 L 249.171875 158.765625 C 248.988281 158.613281 248.898438 158.566406 248.808594 158.503906 L 248.472656 158.292969 C 248.382812 158.230469 248.320312 158.183594 248.226562 158.140625 L 247.53125 157.824219 C 247.238281 157.6875 246.90625 157.558594 246.523438 157.414062 C 240.96875 155.648438 234.949219 156.390625 229.265625 156.972656 C 229.128906 156.988281 228.859375 156.988281 228.523438 157.015625 C 228.035156 157.035156 227.355469 157.035156 226.546875 157.089844 C 226.230469 157.089844 225.875 157.089844 225.484375 157.105469 C 225.222656 157.105469 224.933594 157.105469 224.632812 157.125 C 223.445312 157.152344 222.140625 157.199219 220.925781 157.261719 C 220.664062 157.289062 220.375 157.289062 220.121094 157.304688 C 219.921875 157.304688 219.738281 157.332031 219.558594 157.351562 C 219.175781 157.378906 218.816406 157.398438 218.480469 157.414062 C 217.71875 157.488281 217.046875 157.578125 216.53125 157.667969 C 216.351562 157.6875 216.167969 157.730469 216.03125 157.757812 C 216.015625 157.777344 216.015625 157.777344 215.988281 157.777344 C 215.96875 157.777344 215.941406 157.804688 215.898438 157.804688 C 215.742188 157.804688 215.605469 157.652344 215.605469 157.488281 C 215.605469 157.46875 215.625 157.414062 215.625 157.398438 L 217.308594 151.714844 C 218.324219 148.296875 219.359375 144.796875 220.4375 141.378906 C 222.003906 136.414062 222.503906 132.433594 222.03125 128.507812 C 221.472656 123.5625 218.597656 119.046875 214.390625 116.398438 C 211.988281 114.894531 209.296875 114.105469 206.597656 114.105469 C 206.371094 114.105469 206.171875 114.105469 205.945312 114.132812 C 203.34375 114.242188 201.765625 115.71875 201.519531 118.285156 C 201.183594 121.613281 200.824219 124.621094 200.398438 127.449219 C 199.589844 132.488281 198.238281 136.667969 196.199219 140.257812 C 195.050781 142.296875 193.726562 144.117188 192.101562 145.832031 C 189.972656 148.097656 187.660156 150.589844 185.140625 153.445312 L 179.414062 160 C 178.0625 161.53125 176.695312 163.035156 175.21875 164.449219 C 174.945312 164.738281 174.5625 165.082031 174.109375 165.492188 C 173.125 166.34375 172.027344 167.058594 170.785156 167.621094 C 170.085938 167.929688 169.1875 168.203125 167.910156 168.5625 C 163.0625 169.914062 160.253906 171.28125 160.070312 174.21875 C 159.960938 175.84375 159.890625 177.238281 159.84375 178.542969 L 159.84375 179.457031 C 159.800781 180.71875 159.78125 181.933594 159.78125 183.140625 L 159.78125 228.414062 L 167.347656 228.386719 L 167.730469 228.460938 C 170.359375 228.859375 173.078125 229.3125 176.539062 229.917969 L 178.0625 230.164062 C 184.898438 231.304688 191.1875 232.367188 197.476562 233.082031 C 212.933594 234.902344 231.667969 239.417969 242.925781 225.378906 C 247.53125 219.648438 247.972656 211.519531 249.035156 204.53125 C 250.765625 193.074219 252.695312 181.644531 254.292969 170.160156 C 254.871094 166.117188 253.03125 161.691406 249.707031 159.144531 " fill-opacity="1" fill-rule="nonzero"/><path fill="#2f2e2d" d="M 146.410156 162.589844 L 125.84375 162.589844 C 123.152344 162.589844 120.976562 164.765625 120.976562 167.457031 L 120.976562 228.539062 C 120.976562 231.222656 123.152344 233.398438 125.84375 233.398438 L 146.410156 233.398438 C 149.09375 233.398438 151.269531 231.222656 151.269531 228.539062 L 151.269531 167.457031 C 151.269531 164.765625 149.09375 162.589844 146.410156 162.589844 " fill-opacity="1" fill-rule="nonzero"/></svg>