<svg xmlns="http://www.w3.org/2000/svg" xmlns:xlink="http://www.w3.org/1999/xlink" width="500" zoomAndPan="magnify" viewBox="0 0 375 374.999991" height="500" preserveAspectRatio="xMidYMid meet" version="1.0"><defs><clipPath id="3bc6c321aa"><path d="M 37.5 37.5 L 337.5 37.5 L 337.5 337.5 L 37.5 337.5 Z M 37.5 37.5 " clip-rule="nonzero"/></clipPath><clipPath id="47d7a58574"><path d="M 51.78125 37.5 L 323.21875 37.5 C 331.105469 37.5 337.5 43.894531 337.5 51.78125 L 337.5 323.21875 C 337.5 331.105469 331.105469 337.5 323.21875 337.5 L 51.78125 337.5 C 43.894531 337.5 37.5 331.105469 37.5 323.21875 L 37.5 51.78125 C 37.5 43.894531 43.894531 37.5 51.78125 37.5 Z M 51.78125 37.5 " clip-rule="nonzero"/></clipPath><clipPath id="f722f046e1"><path d="M 71.761719 96.9375 L 303.511719 96.9375 L 303.511719 278.4375 L 71.761719 278.4375 Z M 71.761719 96.9375 " clip-rule="nonzero"/></clipPath><clipPath id="75210046e2"><path d="M 151.859375 229.78125 L 223.109375 229.78125 L 223.109375 326.53125 L 151.859375 326.53125 Z M 151.859375 229.78125 " clip-rule="nonzero"/></clipPath><clipPath id="e39b97635f"><path d="M 229.699219 182.632812 L 283.699219 182.632812 L 283.699219 223 L 229.699219 223 Z M 229.699219 182.632812 " clip-rule="nonzero"/></clipPath></defs><g clip-path="url(#3bc6c321aa)"><g clip-path="url(#47d7a58574)"><path fill="#000000" d="M 37.5 37.5 L 337.5 37.5 L 337.5 337.5 L 37.5 337.5 Z M 37.5 37.5 " fill-opacity="1" fill-rule="nonzero"/><path stroke-linecap="butt" transform="matrix(0.75, 0, 0, 0.75, 37.500002, 37.499998)" fill="none" stroke-linejoin="miter" d="M 19.041665 0.00000328333 L 380.958356 0.00000328333 C 391.473981 0.00000328333 400.000024 8.526046 400.000024 19.041671 L 400.000024 380.958362 C 400.000024 391.473987 391.473981 400.00003 380.958356 400.00003 L 19.041665 400.00003 C 8.52604 400.00003 -0.00000271667 391.473987 -0.00000271667 380.958362 L -0.00000271667 19.041671 C -0.00000271667 8.526046 8.52604 0.00000328333 19.041665 0.00000328333 Z M 19.041665 0.00000328333 " stroke="#ffcc00" stroke-width="8" stroke-opacity="1" stroke-miterlimit="4"/></g></g><g clip-path="url(#f722f046e1)"><path fill="#ffffff" d="M 142.6875 145.707031 C 145.871094 123.816406 164.722656 107 187.496094 107 C 210.269531 107 229.125 123.816406 232.304688 145.707031 C 232.523438 147.207031 233.40625 148.53125 234.710938 149.304688 C 236.011719 150.082031 237.597656 150.230469 239.019531 149.707031 C 243.339844 148.117188 248.015625 147.25 252.902344 147.25 C 275.132812 147.25 293.152344 165.269531 293.152344 187.5 C 293.152344 209.726562 275.132812 227.75 252.902344 227.75 L 217.683594 227.75 C 214.90625 227.75 212.652344 230 212.652344 232.78125 C 212.652344 235.558594 214.90625 237.8125 217.683594 237.8125 L 252.902344 237.8125 C 280.691406 237.8125 303.214844 215.285156 303.214844 187.5 C 303.214844 159.710938 280.691406 137.1875 252.902344 137.1875 C 248.855469 137.1875 244.910156 137.664062 241.128906 138.574219 C 235.027344 114.636719 213.335938 96.9375 187.496094 96.9375 C 161.660156 96.9375 139.964844 114.636719 133.867188 138.574219 C 130.085938 137.664062 126.140625 137.1875 122.089844 137.1875 C 94.304688 137.1875 71.777344 159.710938 71.777344 187.5 C 71.777344 215.285156 94.304688 237.8125 122.089844 237.8125 L 157.308594 237.8125 C 160.089844 237.8125 162.339844 235.558594 162.339844 232.78125 C 162.339844 230 160.089844 227.75 157.308594 227.75 L 122.089844 227.75 C 99.863281 227.75 81.839844 209.726562 81.839844 187.5 C 81.839844 165.269531 99.863281 147.25 122.089844 147.25 C 126.980469 147.25 131.652344 148.117188 135.976562 149.707031 C 137.398438 150.230469 138.980469 150.082031 140.285156 149.304688 C 141.585938 148.53125 142.472656 147.207031 142.6875 145.707031 Z M 221.242188 188.972656 L 191.054688 158.785156 C 189.089844 156.820312 185.90625 156.820312 183.941406 158.785156 L 153.753906 188.972656 C 151.789062 190.9375 151.789062 194.121094 153.753906 196.085938 C 155.71875 198.050781 158.902344 198.050781 160.867188 196.085938 L 182.464844 174.488281 L 182.464844 273.03125 C 182.464844 275.808594 184.71875 278.0625 187.496094 278.0625 C 190.277344 278.0625 192.527344 275.808594 192.527344 273.03125 L 192.527344 174.488281 L 214.128906 196.085938 C 216.09375 198.050781 219.277344 198.050781 221.242188 196.085938 C 223.207031 194.121094 223.207031 190.9375 221.242188 188.972656 Z M 221.242188 188.972656 " fill-opacity="1" fill-rule="evenodd"/></g><g clip-path="url(#75210046e2)"><path fill="#ffffff" d="M 219.5625 268.929688 L 214.640625 268.929688 L 214.640625 256.953125 C 214.660156 241.96875 202.472656 229.78125 187.488281 229.78125 C 172.5 229.78125 160.3125 241.96875 160.3125 256.953125 L 160.3125 268.929688 L 155.410156 268.929688 C 153.457031 268.929688 151.875 270.511719 151.875 272.464844 L 151.875 322.828125 C 151.875 324.761719 153.457031 326.34375 155.410156 326.34375 L 219.582031 326.34375 C 221.535156 326.34375 223.117188 324.761719 223.117188 322.8125 L 223.117188 272.464844 C 223.097656 270.511719 221.515625 268.929688 219.5625 268.929688 Z M 167.382812 256.953125 C 167.382812 245.871094 176.402344 236.851562 187.488281 236.851562 C 198.570312 236.851562 207.589844 245.871094 207.589844 256.953125 L 207.589844 268.929688 L 167.382812 268.929688 Z M 191.019531 300.175781 L 191.019531 309.464844 C 191.019531 311.417969 189.4375 313 187.488281 313 C 185.535156 313 183.953125 311.417969 183.953125 309.464844 L 183.953125 300.175781 C 181.519531 298.902344 179.859375 296.351562 179.859375 293.4375 C 179.859375 289.226562 183.277344 285.828125 187.46875 285.828125 C 191.675781 285.828125 195.074219 289.246094 195.074219 293.4375 C 195.113281 296.351562 193.453125 298.902344 191.019531 300.175781 Z M 191.019531 300.175781 " fill-opacity="1" fill-rule="nonzero"/></g><g clip-path="url(#e39b97635f)"><path fill="#00bf63" d="M 247.558594 222.964844 L 229.722656 205.125 L 233.578125 201.265625 L 247.558594 215.253906 L 280.1875 182.628906 L 284.042969 186.488281 Z M 247.558594 222.964844 " fill-opacity="1" fill-rule="nonzero"/></g></svg>